<svg viewBox="0 0 500 500" xmlns="http://www.w3.org/2000/svg"><path d="M   646.678 455.588 343.689 C  131.040 132.084 560.110 -8.794 157.322 202.970 C  201.967 278.211 243.016 199.217 136.910 240.217 C  558.762 502.132 184.812 218.942 210.032 C  40.948 225.179 94.731 134.396 -23.020 C  271.534 565.891 38.558 -15.234 C  189.137 595.189 650.950 -20.835 405.440 -39.264 C  478.113 157.617 183.808 C  266.303 332.516 374.017 563.466 C  169.259 346.362 530.450 535.798 137.366 479.673 184.066 6.231 284.806 C  35.277 196.016 -6.791 8.586 64.363 459.410 489.844 C  435.176 -89.079 130.646 612.318 499.871 220.155 -3.239 15.064 116.935 C  -7.035 329.456 -61.993 593.010 44.022 14.095 101.443 308.748 646.433 C  536.229 662.824 -9.397 604.604 C  338.194 86.815 478.833 C  606.313 81.278 C  401.036 363.860 500.462 650.688 180.889 -55.934 510.842 C  174.212 57.135 627.880 231.439 531.297 116.876 -9.523 450.458 C  417.437 437.137 484.421 368.677 545.097 555.551 -67.779 361.438" style="fill:rgba(2, 51, 246, 0.8);"></path><path d="M   516.564 551.602 289.050 137.188 519.896 155.477 355.551 456.865 333.781 C  492.484 -29.322 C  150.977 67.136 -87.831 163.937 546.111 347.028 C  539.331 376.439 476.958 133.040 661.644 183.905 556.957 421.707 396.950 376.113 C  667.693 371.304 -14.919 283.624 297.766 76.179 679.436 679.909 575.549 529.271 C  670.922 67.036 156.412 48.070 431.195 -52.610 -83.385 255.208 -34.245 C  31.107 697.119 362.045 651.522 102.242 270.272 658.782 50.347 61.787 451.902 C  549.134 -16.597 342.169 37.836 347.626 141.780 C  230.071 466.256 58.225 C  535.111 679.995 653.232 440.903 518.364 C  487.507 356.056 187.604 222.029 288.591 C  -51.784 -62.520 313.128 302.548 634.897 -41.721 214.343 349.089 681.849 404.809 C  619.349 590.980 569.341 -60.434 171.363 250.349 149.154 C  -40.997 75.264 C  48.921 699.695 659.718 C  209.965 6.968 30.474 607.985 214.435 213.726 533.742 658.396 670.875 C  229.894 -91.239 628.051 304.388 420.149 577.224 94.549 C  629.368 101.302 89.756 258.506 125.569 331.701 500.489 80.373 462.512 C  526.994 -95.858 359.692 100.847 288.830 80.000 630.305 -10.378 1.906 C  665.261 396.071 575.403 C  485.057 448.549 -29.088 C  54.163 635.727 449.084 86.587 257.667 496.539 423.290 C  128.080 118.786 42.025 654.748 411.803 322.719 488.284 15.665 615.663 C  -44.213 204.414 525.621 532.255 C  22.062 206.784 502.238 C  228.848 78.898 84.511 337.830 185.598 38.754 579.206 545.145 531.598 C  298.357 695.024 671.475 -71.677 191.520 57.370 218.091 224.587 674.769 C  627.152 436.923 62.954 655.228 C  218.129 564.669 292.709 113.468 C  425.581 169.441 C  636.436 281.976 423.776 280.127 -26.290 361.118 -68.024 644.609 214.528 -79.601 C  696.964 614.221 75.667 323.157 26.852 42.840 55.759 C  21.921 273.122 666.885 272.428 438.842 C  115.278 58.302 237.903 692.305 238.372 590.300 68.096 -3.182 71.866 -82.112 C  -38.740 231.312 403.014 95.035 390.802 C  290.056 178.993 81.277 224.195 C  560.402 267.743 433.078 456.586 483.350 101.215 330.181 276.332 551.177 -92.673 C  -28.162 623.874 -45.394 572.108 671.002 C  361.312 -12.163 433.379 488.834 C  466.570 15.690 -72.043 387.739 -74.634 389.622 343.746 305.509" style="fill:rgba(168, 169, 233, 1.0);"></path><path d="M   621.735 583.791 132.548 143.534 -54.033 179.229 C  72.207 260.051 359.179 535.033 -75.833 23.720 85.997 C  470.629 102.024 -5.532 72.728 177.059 -6.220 304.170 562.732 664.577 459.724 C  427.583 48.663 581.462 351.343 625.765 10.335 29.408 613.229 322.720 C  76.804 344.400 C  586.736 343.844 -31.214 681.406 -52.952 636.173 C  342.386 78.284 234.796 403.179 C  71.466 -7.965 533.508 390.669 646.801 359.917 16.513 90.785 126.277 C  560.938 481.645 362.443 C  64.901 338.247 209.751 495.130 62.196 620.965 C  183.560 478.256 562.008 270.865 -94.259 C  664.205 -32.985 477.124 379.446 480.746 550.911 C  666.289 227.804 92.959 521.470 280.079 291.410 130.096 C  142.779 220.521 185.163 -98.512 4.653 325.410 C  534.206 -77.049 274.733 34.876 210.880 245.474 488.776 507.893 689.730 C  279.576 70.748 29.602 150.585 93.414 238.027 C  503.862 413.064 327.516 592.391 264.321 C  591.619 6.046 196.761 106.087 383.511 58.776 -99.047 130.524 C  157.304 1.926 437.728 114.515 565.962 549.091 115.021 -53.833 34.108 C  346.749 535.006 548.218 15.849 682.238 151.496 C  404.705 633.080 C  343.025 684.842 -77.144 594.445 C  207.864 494.091 C  432.813 528.964 621.809 411.701 C  389.072 104.662 679.575 590.461 168.624 402.044 467.638 537.823 72.530 502.828 C  619.574 489.837 622.887 472.010 129.727 519.425 177.951 C  632.104 6.004 217.221 530.553 -5.233 393.837 47.961 C  67.319 260.779 296.115 423.529 532.760 186.133 177.620 361.111 307.073 50.484 C  28.246 597.922 535.400 630.063 C  245.150 105.114 96.388 126.710 415.792 309.781 665.876 396.634 C  455.067 -91.392 155.636 149.618 225.917 624.933 381.755 40.969 141.573 303.425 C  141.412 448.465 129.388 573.265 653.866 169.671 427.130 -40.380 138.376 C  682.734 579.511 146.576 477.123 399.779 12.399 222.920 268.231 200.510 C  20.676 -96.541 678.553 -97.440 C  444.943 619.088 239.551 193.943 132.372 C  659.919 206.542 32.104 187.739 -69.317 116.498 C  387.989 663.851 416.687 76.655 152.907 C  475.479 674.316 13.760 89.708 C  236.716 401.148 162.407 196.635 144.278 444.725 113.273" style="fill:rgba(179, 224, 25, 0.2);"></path><path d="M   -38.189 454.485 C  427.379 282.636 -14.752 -69.829 25.445 511.341 C  78.057 256.541 630.971 C  -13.341 472.133 C  49.386 401.272 520.592 94.127 497.636 104.256 157.811 138.178 161.148 C  -77.454 374.519 484.794 70.805 -49.216 184.551 607.286 307.184 -51.280 420.398 C  -47.614 31.362 348.264 520.453 15.387 C  98.488 -0.835 333.277 595.158 75.253 -59.752 C  648.295 -94.689 572.487 504.004 32.338 86.750 50.124 19.955 455.067 575.420 C  378.028 698.545 -95.049 -53.412 282.025 86.801 167.286 156.637 40.643 C  480.822 341.037 668.685 367.944 542.950 503.803 461.624 410.945 374.144 373.869 C  297.267 228.644 160.522 5.886 412.065 -5.274 615.362 616.062 C  464.750 627.842 518.066 160.227 621.724 C  192.183 184.076 549.467 448.069 532.829 296.062 614.248 -5.712 -84.520 100.783 C  276.484 321.738 562.332 492.248 158.914 345.179 C  89.081 463.390 305.089 46.218 -90.121 490.607 -88.992 475.429 605.294 C  239.443 80.267 600.769 566.254 615.997 -25.693 C  59.474 388.057 229.984 -5.665 675.283 594.261 25.211 444.246 -95.768 C  415.640 -24.116 -9.406 -97.301 432.055 475.279 366.642 233.628 222.956 219.971 C  94.846 267.177 481.351 -84.129 75.411 C  303.457 471.641 -97.632 442.572 -90.084 638.668 439.681 348.572 C  373.106 521.916 449.363 348.164 -45.105 104.943 547.407 290.644 450.201 378.682 C  327.841 478.954 C  410.342 -26.585 -13.997 C  568.655 569.342 389.196 -84.675 652.055 234.868 657.283 C  275.068 583.231 592.781 -12.164 -42.785 89.254 118.659 323.684 C  324.553 364.018 593.788 191.880 C  338.378 322.501 -92.897 669.053 360.651 C  684.692 68.707 -33.957 501.581 142.866 -5.480 235.443 370.160 521.037" style="fill:rgba(149, 129, 111, 0.6);"></path><path d="M   392.544 618.932 557.735 454.295 335.538 C  424.401 -73.626 525.592 158.335 -77.131 429.231 C  52.721 355.139 367.157 225.767 222.964 C  653.190 575.237 C  153.307 577.557 -31.432 -90.486 584.690 42.259 -58.372 647.187 C  402.494 214.116 665.955 343.520 C  292.512 306.037 C  142.075 150.991 62.761 400.019 479.067 305.907 596.632 C  591.148 564.177 -18.456 C  380.794 579.274 C  611.021 610.159 291.841 636.825 158.911 597.793 479.575 207.578 -4.114 C  288.838 153.255 186.513 -7.282 253.664 C  683.716 219.432 35.416 39.759 378.126 C  184.766 358.230 C  -31.132 482.596 637.559 575.345 443.201 313.566 629.498" style="fill:rgba(231, 23, 96, 0.2);"></path><path d="M   175.782 655.962 363.402 569.969 -10.827 616.162 587.114 514.613 C  305.728 80.380 C  -37.694 43.334 587.413 485.348 287.636 124.827 160.440 642.909 402.590 C  139.633 370.273 178.196 422.885 578.607 180.802 C  354.394 283.676 C  284.603 125.251 681.804 301.162 281.273 143.552 C  675.492 416.754 19.826 383.610 613.328 604.245 43.013 C  124.894 385.860 528.388 633.217 418.943 155.569 155.715 C  315.096 674.509 -98.253 533.033 C  301.914 275.851 176.916 312.431 C  492.909 3.975 602.922 128.073 -82.232 63.278 164.967 72.075 300.062 C  321.112 143.194 C  632.883 55.392 209.313 C  327.717 535.205 692.196 199.223 302.007 471.686 57.300 C  221.338 5.838 618.594 -22.053 268.212 229.269 C  152.522 -80.215 400.353 239.014 154.950 508.437 339.161 445.165 C  354.832 215.054 -72.282 C  491.213 417.275 C  441.914 403.816 129.986 276.717 398.496 37.757 -96.409 241.608 656.307 C  148.337 383.699 59.348 18.971 -91.094 -44.331 C  307.359 597.980 362.846 C  109.638 492.412 639.849 C  620.472 430.040 C  463.001 83.575 -9.623 390.287 438.647 507.191 47.113 689.860 487.553 655.263 C  371.797 268.225 446.374 681.940 157.029 561.770 644.563 195.710 28.510 665.758 C  135.991 523.687 682.828 432.808 -31.421 21.630 629.274 61.016 C  474.015 406.352 364.961 406.512 C  -71.190 416.016 33.199 -0.081 195.328 182.372 370.861 618.659 C  346.223 134.209 C  404.472 511.614 -23.181 75.659 -80.960 657.486 362.937 617.993 376.042 483.445" style="fill:rgba(151, 152, 94, 0.3);"></path><path d="M   533.887 436.927 371.495 241.980 508.704 -40.224 687.564 -12.878 -72.670 C  250.527 154.640 448.601 501.093 172.275 501.870 695.309 C  510.067 46.099 226.439 442.195 343.028 310.861 42.665 622.618 C  659.834 501.698 506.694 294.171 203.361 413.114 393.984" style="fill:rgba(123, 170, 134, 0.2);"></path><path d="M   92.679 -96.801 450.522 244.395 C  437.750 -19.187 -54.256 296.952 132.042 C  204.332 366.738 441.259 489.805 C  548.777 307.206 358.925 695.897 5.698 602.595 358.157 300.353 -96.154 C  126.996 377.061 -89.034 386.204 690.295 C  85.988 455.387 336.939 389.013 161.494 C  228.766 641.043 60.720 430.835 497.040 C  343.781 622.250 C  327.601 -47.236 -52.615 C  507.399 105.212 572.564 398.205 137.107 495.480 469.966 80.303 86.634 57.827 C  225.728 407.018 C  227.358 698.017 C  -70.525 32.594 457.489 543.008 54.580 -81.105 472.230 549.154" style="fill:rgba(83, 35, 97, 0.4);"></path><path d="M   51.410 43.981 -64.114 -31.242 -68.939 658.577 231.091 427.294 364.910 C  426.121 686.402 367.222 209.385 498.259 -64.176 587.049 226.527 461.150 -67.179 C  176.215 699.422 262.788 506.376 224.669 302.406 677.903 C  59.349 628.680 566.918 190.930 441.541 416.347 327.784 337.801 C  605.140 472.788 -34.993 C  445.873 694.500 C  248.054 318.419 69.967 533.167 61.265 470.601 56.549 376.331 311.692 480.339 C  -53.651 360.769 586.930 12.836 C  592.606 461.401 190.964 -52.046 460.219 408.475 477.895 C  529.247 574.255 C  7.321 260.230 351.244 169.099 297.330 C  491.816 297.950 179.749 552.700 -36.520 222.409 C  446.266 209.669 126.588 C  13.940 122.380 328.747 50.910 644.869 462.657 357.041 100.464 -79.698 C  673.384 131.950 -66.852 600.687 197.445 376.711 C  -93.355 224.251 C  290.239 1.626 177.938 388.736 124.859 46.335 200.873 C  612.609 -92.831 -2.566 -86.769 198.327 174.692 C  193.397 399.291 C  244.463 548.267 -41.231 -71.774 79.108 294.117 -19.654 540.687 C  612.861 -89.797 368.732 -18.637 665.272 -73.529 324.268 175.092 -96.419 C  213.698 210.183 429.768 462.839 642.871 307.745 C  389.826 501.218 165.837 212.175 21.874 126.828 -42.974 -29.313 449.330 382.504 C  -68.215 549.092 611.107 -83.788 427.202 C  244.715 352.296 33.862 114.419 180.449 C  -89.920 273.244 C  128.163 153.474 181.526 -37.057 47.134 506.505 -77.196 352.374 84.532 59.403 C  -66.699 468.536 545.808 264.007 -46.105 646.824 465.766 400.388 170.567" style="fill:rgba(67, 87, 89, 0.7);"></path><path d="M   -24.920 484.030 663.387 656.106 670.360 -66.620 C  669.674 -18.730 268.915 544.852 434.722 342.987 450.653 577.111 587.811 456.021 C  -30.689 94.190 C  260.585 369.040 144.163 508.611 305.596 261.267 178.858 275.418 C  686.676 336.620 -90.537 28.183 525.816 C  503.064 229.173 545.668 156.138 68.023 C  88.106 -13.053 623.400 522.131 C  34.329 295.537 325.412 82.030 -38.466 393.675 403.415 666.460 320.530 -20.776 C  -16.594 50.324 251.024 308.109 C  268.554 -54.769 419.219 C  127.535 493.602 145.261 182.322 C  607.409 574.618 -65.648 621.445 109.280 7.289 -43.920 C  98.860 211.916 523.755 250.256 84.597 119.928 395.515 -7.626 C  644.416 136.387 373.714 122.161 31.959 247.526 6.308 76.627" style="fill:rgba(251, 163, 190, 0.1);"></path><path d="M   245.676 159.668 -65.978 426.572 132.780 190.423 C  250.515 458.404 436.305 273.470 C  14.845 529.482 172.520 563.506 96.793 C  252.561 133.452 C  477.617 102.798 107.540 584.276 530.769 124.452 113.857 648.206 242.218 536.588 C  623.571 169.826 -94.695 615.614 643.960 568.507 C  505.743 685.959 534.596 368.393 323.213 390.227 80.556 C  549.606 458.623 101.153 145.381 446.526 C  535.048 551.412 236.509 146.131 18.692 567.178 C  591.122 -34.674 405.900 -68.212 219.263 -82.860 C  195.889 41.925 357.713 112.140 126.673 C  657.145 591.533 108.055 477.269 351.347 366.282 317.983 484.401 51.558 C  378.952 619.367 689.482 320.473 C  257.342 330.226 688.714 207.913 85.004 323.363 120.154 159.401 210.219 C  572.732 466.250 248.846 570.539 582.626 21.187 557.991 455.548 446.783 C  379.290 266.220 106.729 C  311.144 -27.684 606.164 153.011 129.421 11.645 15.131 468.549 -92.944 C  -84.363 -11.295 413.897 389.000 576.726 570.210 238.000 691.905 C  537.876 168.488 -1.863 115.867 157.538 629.038 C  133.239 -82.769 67.157 C  687.773 9.083 277.063 77.458 482.486 489.508 239.018 334.536 C  139.857 -53.687 183.372 613.670 177.843 404.607 C  221.544 459.511 293.007 C  8.424 364.542" style="fill:rgba(222, 2, 22, 0.6);"></path><path d="M   490.765 126.635 594.192 125.563 242.136 699.791 327.657 200.429 C  -66.272 503.866 C  151.493 235.980 -38.257 692.215 86.892 583.585 C  566.612 387.546 54.435" style="fill:rgba(162, 202, 172, 0.5);"></path><path d="M   519.778 668.723 625.766 C  404.908 244.417 171.826 212.341 -49.110 23.673 515.431 C  469.265 604.745 -57.556 427.775 170.858" style="fill:rgba(188, 54, 214, 0.4);"></path><path d="M   266.480 307.017 565.732 192.053 600.423 501.876 96.012 263.733 76.634 451.813 C  62.432 266.831 236.293 59.203 199.659 65.803 311.361 379.241 C  -50.945 340.993 593.498 158.184 18.019 294.345 C  178.315 41.281 413.690 433.866 C  30.227 98.084 -41.338 633.368 346.387 182.506 290.684 463.091 C  -28.625 272.200 26.166 -78.815 -76.398 199.248 306.801 C  464.700 633.234 242.081 -54.255 249.010 342.033 C  340.214 532.595 271.247 106.005 468.052 196.393 142.269 632.615 510.714 123.319 C  585.726 382.098 577.951 647.072 270.635 416.602 -94.495 652.232 -89.170 680.698 C  34.597 552.521 517.802 65.090 170.130 672.644 C  -33.212 345.142 37.355 522.481 C  135.409 657.029 625.703 332.849 510.543 C  273.600 36.802 489.712 188.705 -23.115 527.962 -84.054 C  159.440 494.713 31.038 186.830 338.554 638.104 333.744 518.454 C  17.440 298.742 251.770 522.669 -71.490 C  675.093 611.458 163.119 -75.948 161.335 C  327.478 19.661 24.236 284.109 640.198 44.061 C  180.526 590.792 9.115 179.888 C  442.244 -79.593 12.074 322.592 -88.950 352.460 267.193 122.184 575.866 C  597.849 175.007 C  -79.839 40.121 C  660.224 604.442 280.052 C  192.438 649.218 179.909 427.407 C  250.568 626.218 129.371 384.812 692.586 77.637 653.651 260.728 C  326.185 460.972 502.179 221.027 111.476 -74.512 143.275 C  202.349 96.784 311.049 -83.235 357.693 C  528.613 664.747 366.223 448.203 C  581.359 113.551 C  -98.330 345.747 -10.160 103.436 410.887 C  224.220 361.841 349.868 380.809 49.114 656.692 693.123 C  669.085 -88.602 C  -90.080 391.134 582.341 C  339.776 626.129 522.990 -83.700 27.705 675.168 691.134 359.121 262.761 C  -62.025 170.938 262.753 23.234 618.382 584.800 549.725 41.393 C  462.702 353.307 C  126.439 -42.121 357.735 381.651 122.690 183.096 465.805 154.815 -53.161 217.231" style="fill:rgba(15, 253, 122, 0.2);"></path><path d="M   133.003 159.663 346.574 C  102.233 228.185 211.146 291.708 152.175 417.479 422.851 421.396 597.505 -5.376 C  204.410 230.287 C  69.498 233.823 689.787 282.101 123.408 57.863 278.801 672.034 -20.190 19.454 C  217.467 669.597 78.684 621.708 253.849 699.108 526.549 C  475.510 319.772 C  696.599 580.834 383.042 195.678 C  -98.546 425.145 333.117 C  31.088 180.200 382.089 690.662 -64.272 437.641 C  193.055 182.178 398.604 -83.252 330.106 -72.316 157.001 12.923 129.507 -76.334" style="fill:rgba(162, 82, 105, 0.8);"></path><path d="M   581.308 -94.575 453.219 513.167 C  144.575 64.326 672.313 -32.514 507.381 371.952 C  227.715 72.445 382.948 641.639 528.377 C  592.103 210.797 C  545.064 117.790 607.276 C  65.724 172.631 328.954 73.688 192.495 217.673 259.795 261.445 131.518 315.181 C  70.237 632.487 322.338 644.452 -43.134 538.649 C  404.967 297.830 640.292 326.090 -82.691 C  -44.217 49.712 -63.786 C  274.830 570.505 11.905 319.416 557.285 566.960 604.006 282.688 -92.360 413.300 C  367.064 603.334 C  158.480 446.169 591.593 316.700 595.498 487.552 272.606 C  -21.706 481.271 264.629 399.609 32.662 637.814 -26.212 C  317.881 568.462 641.475 13.603 618.944 386.965 637.729 C  -18.518 -15.059 674.577 -38.777 104.340 66.149 485.983 C  470.108 600.068 501.718 227.258 436.452 -38.091 C  596.472 209.916 493.443 C  484.277 -17.885 87.676 355.190 439.258 185.503 254.030 673.173 C  227.649 501.190 549.655 68.523 86.760 481.738 C  234.783 86.060 417.823 120.933 -98.943 458.790 599.354 543.146 C  -94.938 470.635 -58.721 541.661 -76.144 174.668 395.514 184.041 357.667 686.198 C  31.444 455.888 C  194.587 22.370 -5.629 C  504.261 202.738 -91.409 567.305 130.707 540.221 C  376.967 249.703" style="fill:rgba(173, 58, 105, 0.2);"></path><path d="M   39.497 507.587 346.376 572.091 469.691 157.351 8.669 -65.019 607.717 C  510.542 237.906 C  71.453 -6.943 677.934 C  15.288 639.906 301.399 480.144 C  -76.455 5.462 -29.933 459.385 625.507 -91.990 C  157.521 529.862 102.537 611.684 102.695 352.134 C  554.898 652.519 325.764 19.718 520.506 244.186 83.252 669.319 74.025 691.959 C  -18.340 60.003 488.521 212.586 193.063 C  312.613 -99.419 169.945 -3.502 587.548 503.905 556.603 C  418.447 550.867 225.320 -27.664 -52.663 18.670 460.554 C  334.173 462.642 392.695 426.448 97.144 C  606.729 206.635 273.612 7.634 512.200 C  467.329 227.986 95.136 131.006 177.940 374.541 51.299 C  694.856 628.967 560.960 317.953 287.809 553.944 125.479 C  562.966 283.975 C  463.662 69.757 165.915 699.966 191.523 -87.596 C  354.584 588.525 47.230 351.830 C  90.568 117.169 C  459.998 -19.376 76.183 267.207 217.953 614.990 641.913 417.333 -84.636 -61.967 C  -74.525 -36.615 C  212.656 649.069 687.926 246.664 C  417.014 164.076 240.201 -4.938 546.403 C  -61.550 209.273 228.256 340.620 580.358 C  96.548 321.594 611.866 387.196 619.355 245.931 243.852 458.266 300.039 59.085 C  225.938 354.538 458.758 559.680 24.926 -96.510 301.375 364.086 C  432.873 104.969 -47.924 278.105 328.423 185.665 C  643.358 424.832 -23.293 494.310 496.400 579.052 132.416 184.648 8.172 C  304.858 299.106 127.497 C  478.534 -87.079 191.082 522.008 391.063 -45.147 213.546 110.275 C  217.289 476.719 550.915 C  80.803 90.933 666.060 316.766 189.718 248.710 239.725 182.976 318.273 C  490.617 456.113 453.851 C  223.525 187.961 51.137 -22.201 -13.608 276.170 564.036 C  232.300 518.913 100.534 C  443.799 269.748 476.068 -26.653 312.350" style="fill:rgba(17, 115, 62, 0.5);"></path><path d="M   103.769 109.460 235.563 139.466 411.404 C  28.088 569.962 C  404.432 421.055 C  296.633 458.405 518.988 560.743 358.312 633.934 -49.574 C  662.312 668.499 C  411.885 -91.047 189.568 123.825 C  434.639 -57.362 -19.459 573.510 356.794 350.280 C  238.542 -19.333 303.086 206.805 403.481 505.054 C  97.245 454.597 286.808 1.753 -46.844 C  676.278 109.860 656.643 C  -71.366 346.149 407.208 20.485 480.613 C  546.462 -81.498 203.481 160.049 620.986 527.204 47.474 35.836 3.317 66.599 C  -23.009 673.094 C  101.475 248.446 200.240 699.322 672.788 252.268 C  227.681 19.404 443.416 183.933 C  425.875 4.411 41.477 243.173 256.347 C  655.404 688.576 254.927 37.986 111.640 291.719 -28.509 C  232.676 487.869 554.920 C  129.845 564.190 6.129 C  129.929 434.027 C  216.068 290.668 -59.383 507.145 23.849 490.898 368.657 344.685 400.411 C  645.684 24.215 578.877 567.110 C  361.826 -2.705 630.011 59.823 -8.118 254.133 401.836 C  342.650 -57.441 566.049 136.055 627.100 141.490 224.736 206.596 104.452 C  378.682 573.963 19.348 364.319 C  -11.867 547.789 555.504 697.470 552.845 C  345.989 569.625 C  283.888 180.636 320.864 698.140 547.307 630.389 277.330 450.795 275.494 C  206.125 588.256 551.504 C  59.782 219.061 360.268 84.300 323.586 69.625 173.719 651.922 325.003 C  -54.057 89.000 177.696 C  190.098 43.943 673.821 -3.302 255.157 C  633.792 493.062 541.984 -52.846 -70.258 314.562 562.855 351.353 C  380.332 493.775 476.693 437.212 493.089 111.664 C  313.964 -9.315 23.759 C  653.844 646.768 554.369 681.319 C  -21.038 594.422 206.975 78.340 602.270 207.742 472.050 558.350 C  103.745 262.101 220.179 262.698 601.404 -32.660 202.858 386.775 C  231.683 641.160 -43.885 C  680.779 560.749 435.838 207.870 599.238 499.572 -6.713" style="fill:rgba(158, 227, 35, 0.8);"></path></svg>