<svg viewBox="107.417 40.314 278.371 220.911" width="278.371" height="220.911" xmlns="http://www.w3.org/2000/svg">
    <defs></defs>
    <path style="fill: rgb(255, 255, 255);" d="M 131.375 140.85 L 191.555 105.527 L 219.028 102.038 L 221.645 129.511 L 205.073 176.173 L 209.169 174.552 L 224.066 131.44 L 225.467 114.965 L 218.808 103.224 L 227.22 102.522 L 225.993 114.791 L 231.777 124.78 L 218.984 173.325 L 235.457 181.562 L 275.96 144.584 L 265.62 159.13 L 239.682 184.015 L 243.889 186.995 L 296.114 120.925 L 331.476 84.472 L 379.846 43.813 L 345.321 80.441 L 380.021 48.019 L 320.084 107.255 L 303.786 124.605 L 275.22 161.758 L 305.538 125.656 L 381.599 50.122 L 330.074 105.502 L 286.786 156.676 L 281.178 163.861 L 275.57 169.295 L 280.283 169.527 L 274.675 178.992 L 287.818 164.621 L 303.767 140.085 L 311.128 128.518 L 317.963 120.106 L 324.096 118.354 L 310.076 136.405 L 308.324 137.106 L 297.282 169.527 L 284.586 182.535 L 274.247 199.885 L 268.989 202.689 L 256.195 207.597 L 241.474 214.607 L 241.298 209.7 L 243.928 209.7 L 241.124 207.422 L 247.258 204.793 L 238.846 200.587 L 233.588 203.566 L 239.546 207.071 L 234.463 213.906 L 223.948 209.174 L 179.824 237.37 L 181.927 233.515 L 171.412 242.978 L 161.773 258.225 L 159.319 257.174 L 153.887 256.648 L 153.887 253.493 L 152.134 250.515 L 160.196 241.401 L 163.526 232.989 L 149.506 247.885 L 150.731 229.835 L 163 218.092 L 162.473 196.127 L 151.608 181.406 L 163.35 171.242 L 172.464 184.21 L 185.958 155.644 L 169.66 179.303 L 167.731 177.2 L 190.515 127.429 L 162.299 138.995 L 142.67 149.861 L 131.375 140.85 Z"></path>
    <path style="fill: rgb(255, 255, 255);" d="M 117.55 136.502 L 124.561 127.564 L 144.189 119.503 L 176.961 100.751 L 208.157 87.607 L 202.197 103.379 L 220.424 98.823 L 218.672 102.153 L 191.858 105.483 L 173.106 109.688 L 151.55 122.482 L 125.963 139.306 L 117.55 136.502 Z"></path>
    <path style="fill: rgb(255, 255, 255);" d="M 111.417 141.41 L 114.571 147.894 L 127.014 154.729 L 123.159 157.007 L 127.891 161.564 L 134.9 158.058 L 135.426 151.223 L 128.065 146.141 L 121.406 144.038 L 120.88 140.007 L 111.417 141.41 Z"></path>
  </svg>